:FULLY-SPECIFIED
:FORCE-ALL-JOINTS-BE-3DOF
:DEGREES
1223
root -0.754343 14.6273 -17.0428 371.735 19.8919 363.113
lfemur 10.953 -0.516736 -10.0882
ltibia 33.1641 0 0
lfoot -0.142991 27.3109 0
ltoes -30.0326 0 0
rfemur -59.1994 -15.8285 21.9896
rtibia 77.8964 0 0
rfoot -19.1571 -21.9244 0
rtoes 3.33969 0 0
lowerback 13.845 0.503074 -3.70523
upperback -3.66765 -0.0514836 -0.178042
thorax -11.8188 0.246085 1.91535
lowerneck -1.04722 -8.56155 -9.80355
upperneck 0.305102 -11.4435 10.1027
head 1.47155 -5.68659 4.34147
lclavicle 2.26591e-15 -4.41586e-15 0
lhumerus -58.3983 -30.3002 112.922
lradius 90.1587 0 0
lwrist 24.7701 0 0
lhand -23.3603 23.5482 0
lfingers 7.12502 0 0
lthumb 3.09507 53.4565 0
rclavicle 2.26591e-15 -4.41586e-15 0
rhumerus 65.099 3.49955 -27.3651
rradius 93.5712 0 0
rwrist -11.7327 0 0
rhand -29.883 -33.9485 0
rfingers 7.12502 0 0
rthumb -3.20424 -63.8729 0
1224
root -0.760623 14.6541 -16.8643 371.502 19.2063 362.674
lfemur 8.6247 -0.328047 -10.2706
ltibia 36.908 0 0
lfoot -0.145007 26.2535 0
ltoes -30.2513 0 0
rfemur -58.0258 -15.1146 22.4211
rtibia 77.4314 0 0
rfoot -19.5741 -22.1833 0
rtoes 2.44103 0 0
lowerback 13.7906 0.510261 -3.30035
upperback -3.64919 0.0440925 -0.0621733
thorax -11.7646 0.267584 1.791
lowerneck -1.08326 -8.36764 -9.62651
upperneck 0.40596 -11.1835 9.89499
head 1.47073 -5.55716 4.27234
lclavicle -2.42557e-16 -4.20287e-15 0
lhumerus -56.5613 -31.4937 113.09
lradius 88.5357 0 0
lwrist 21.4208 0 0
lhand -23.9325 22.742 0
lfingers 7.12502 0 0
lthumb 2.54245 52.649 0
rclavicle -2.42557e-16 -4.20287e-15 0
rhumerus 65.2675 4.29618 -27.426
rradius 93.9623 0 0
rwrist -13.0379 0 0
rhand -29.4246 -34.4777 0
rfingers 7.12502 0 0
rthumb -2.76152 -64.4027 0
1225
root -0.766904 14.6808 -16.6859 371.269 18.5207 362.235
lfemur 6.29639 -0.139359 -10.4529
ltibia 40.6519 0 0
lfoot -0.147023 25.1962 0
ltoes -30.47 0 0
rfemur -56.8522 -14.4007 22.8526
rtibia 76.9664 0 0
rfoot -19.991 -22.4423 0
rtoes 1.54236 0 0
lowerback 13.7361 0.517447 -2.89547
upperback -3.63072 0.139669 0.053695
thorax -11.7104 0.289082 1.66665
lowerneck -1.1193 -8.17374 -9.44948
upperneck 0.506819 -10.9236 9.68733
head 1.46991 -5.42773 4.20321
lclavicle -2.75103e-15 -3.98989e-15 0
lhumerus -54.7243 -32.6872 113.259
lradius 86.9128 0 0
lwrist 18.0715 0 0
lhand -24.5047 21.9358 0
lfingers 7.12502 0 0
lthumb 1.98983 51.8416 0
rclavicle -2.75103e-15 -3.98989e-15 0
rhumerus 65.436 5.09281 -27.4868
rradius 94.3535 0 0
rwrist -14.3432 0 0
rhand -28.9661 -35.0068 0
rfingers 7.12502 0 0
rthumb -2.31879 -64.9325 0
1226
root -0.773184 14.7075 -16.5074 371.035 17.8352 361.795
lfemur 3.96807 0.04933 -10.6352
ltibia 44.3958 0 0
lfoot -0.149039 24.1389 0
ltoes -30.6887 0 0
rfemur -55.6786 -13.6868 23.2841
rtibia 76.5014 0 0
rfoot -20.408 -22.7012 0
rtoes 0.6437 0 0
lowerback 13.6817 0.524634 -2.49059
upperback -3.61226 0.235245 0.169563
thorax -11.6562 0.310581 1.54229
lowerneck -1.15534 -7.97983 -9.27244
upperneck 0.607677 -10.6636 9.47967
head 1.4691 -5.2983 4.13408
lclavicle -5.2595e-15 -3.77691e-15 0
lhumerus -52.8873 -33.8806 113.427
lradius 85.2898 0 0
lwrist 14.7223 0 0
lhand -25.077 21.1297 0
lfingers 7.12502 0 0
lthumb 1.43721 51.0341 0
rclavicle -5.2595e-15 -3.77691e-15 0
rhumerus 65.6046 5.88945 -27.5477
rradius 94.7447 0 0
rwrist -15.6484 0 0
rhand -28.5077 -35.536 0
rfingers 7.12502 0 0
rthumb -1.87606 -65.4624 0
1227
root -0.779464 14.7343 -16.3289 370.802 17.1496 361.356
lfemur 1.63975 0.238019 -10.8176
ltibia 48.1397 0 0
lfoot -0.151055 23.0815 0
ltoes -30.9074 0 0
rfemur -54.505 -12.9729 23.7156
rtibia 76.0365 0 0
rfoot -20.825 -22.9601 0
rtoes -0.254964 0 0
lowerback 13.6273 0.531821 -2.08571
upperback -3.5938 0.330821 0.285432
thorax -11.6019 0.33208 1.41794
lowerneck -1.19138 -7.78593 -9.0954
upperneck 0.708535 -10.4037 9.27201
head 1.46828 -5.16887 4.06496
lclavicle -7.76797e-15 -3.56392e-15 0
lhumerus -51.0503 -35.0741 113.595
lradius 83.6669 0 0
lwrist 11.373 0 0
lhand -25.6492 20.3235 0
lfingers 7.12502 0 0
lthumb 0.884591 50.2266 0
rclavicle -7.76797e-15 -3.56392e-15 0
rhumerus 65.7731 6.68608 -27.6085
rradius 95.1358 0 0
rwrist -16.9536 0 0
rhand -28.0493 -36.0652 0
rfingers 7.12502 0 0
rthumb -1.43334 -65.9922 0
1228
root -0.785745 14.761 -16.1505 370.569 16.464 360.917
lfemur -0.688571 0.426707 -10.9999
ltibia 51.8836 0 0
lfoot -0.153071 22.0242 0
ltoes -31.1261 0 0
rfemur -53.3314 -12.259 24.1471
rtibia 75.5715 0 0
rfoot -21.2419 -23.2191 0
rtoes -1.15363 0 0
lowerback 13.5729 0.539008 -1.68083
upperback -3.57533 0.426397 0.4013
thorax -11.5477 0.353578 1.29359
lowerneck -1.22742 -7.59202 -8.91837
upperneck 0.809393 -10.1437 9.06435
head 1.46746 -5.03944 3.99583
lclavicle -1.02764e-14 -3.35094e-15 0
lhumerus -49.2133 -36.2676 113.764
lradius 82.0439 0 0
lwrist 8.02371 0 0
lhand -26.2214 19.5173 0
lfingers 7.12502 0 0
lthumb 0.331973 49.4192 0
rclavicle -1.02764e-14 -3.35094e-15 0
rhumerus 65.9416 7.48271 -27.6694
rradius 95.527 0 0
rwrist -18.2588 0 0
rhand -27.5908 -36.5943 0
rfingers 7.12502 0 0
rthumb -0.99061 -66.522 0
1229
root -0.792025 14.7877 -15.972 370.336 15.7784 360.477
lfemur -3.01689 0.615396 -11.1822
ltibia 55.6275 0 0
lfoot -0.155087 20.9668 0
ltoes -31.3448 0 0
rfemur -52.1578 -11.5451 24.5786
rtibia 75.1065 0 0
rfoot -21.6589 -23.478 0
rtoes -2.05229 0 0
lowerback 13.5185 0.546195 -1.27595
upperback -3.55687 0.521973 0.517168
thorax -11.4935 0.375077 1.16924
lowerneck -1.26346 -7.39812 -8.74133
upperneck 0.910251 -9.88377 8.85669
head 1.46664 -4.91001 3.9267
lclavicle -1.27849e-14 -3.13796e-15 0
lhumerus -47.3763 -37.4611 113.932
lradius 80.421 0 0
lwrist 4.67444 0 0
lhand -26.7937 18.7111 0
lfingers 7.12502 0 0
lthumb -0.220646 48.6117 0
rclavicle -1.27849e-14 -3.13796e-15 0
rhumerus 66.1101 8.27934 -27.7302
rradius 95.9182 0 0
rwrist -19.564 0 0
rhand -27.1324 -37.1235 0
rfingers 7.12502 0 0
rthumb -0.547883 -67.0519 0
